<?xml version="1.0" standalone="no"?>
<!DOCTYPE svg PUBLIC "-//W3C//DTD SVG 1.1//EN" "http://www.w3.org/Graphics/SVG/1.1/DTD/svg11.dtd">
<svg t="1713162310640" class="icon" viewBox="0 0 1070 1024" version="1.1"
	xmlns="http://www.w3.org/2000/svg" p-id="4517"
	xmlns:xlink="http://www.w3.org/1999/xlink" width="208.984375" height="200">
	<path d="M678.912 0c21.597091 0 39.237818 14.522182 40.168727 32.674909v99.095273c0 18.385455-17.035636 33.373091-38.446545 34.117818h-122.321455v46.917818h137.774546c204.520727 0 365.986909 181.806545 365.986909 401.408 0 210.106182-148.107636 386.420364-342.946909 400.477091l-11.310546 0.651636-11.729454 0.186182h-321.629091c-204.520727 0-365.986909-181.76-365.986909-401.314909 0-210.152727 148.107636-386.466909 342.946909-400.523636l11.310545-0.605091 11.729455-0.232727 103.424-0.046546V131.770182c0-18.385455 17.082182-33.373091 38.493091-34.117818l122.321454-0.046546V34.164364c0-18.385455 17.082182-33.373091 38.493091-34.117819L678.912 0z m-304.407273 490.589091a40.587636 40.587636 0 0 0-39.889454 36.026182l-0.325818 5.12v41.192727l-41.937455 0.093091a40.773818 40.773818 0 0 0-38.446545 41.192727c0 20.992 15.313455 38.353455 35.141818 40.866909l5.026909 0.325818h40.215273v43.008c0.930909 21.922909 18.571636 39.424 40.168727 39.424 20.48 0 37.422545-15.732364 39.889454-36.026181l0.325819-5.166546v-41.285818h41.937454a40.773818 40.773818 0 0 0 38.446546-41.146182 40.866909 40.866909 0 0 0-35.141819-40.913454l-5.026909-0.325819h-40.215272v-43.008a40.680727 40.680727 0 0 0-40.215273-39.424z m321.582546 0c-66.606545 0-120.599273 55.296-120.599273 123.624727 0 68.282182 53.992727 123.624727 120.552727 123.624727 66.606545 0 120.599273-55.389091 120.599273-123.624727 0-68.328727-53.992727-123.671273-120.552727-123.671273z" fill="#8a8a8a" p-id="4518"></path>
</svg>